<svg width="30" height="31" viewBox="0 0 30 31" fill="none" xmlns="http://www.w3.org/2000/svg">
<rect width="30" height="30" transform="translate(0 0.5)" fill="white"/>
<path fill-rule="evenodd" clip-rule="evenodd" d="M4.6875 23C4.6875 22.7514 4.78627 22.5129 4.96209 22.3371C5.1379 22.1613 5.37636 22.0625 5.625 22.0625H24.375C24.6236 22.0625 24.8621 22.1613 25.0379 22.3371C25.2137 22.5129 25.3125 22.7514 25.3125 23C25.3125 23.2486 25.2137 23.4871 25.0379 23.6629C24.8621 23.8387 24.6236 23.9375 24.375 23.9375H5.625C5.37636 23.9375 5.1379 23.8387 4.96209 23.6629C4.78627 23.4871 4.6875 23.2486 4.6875 23ZM4.6875 15.5C4.6875 15.2514 4.78627 15.0129 4.96209 14.8371C5.1379 14.6613 5.37636 14.5625 5.625 14.5625H24.375C24.6236 14.5625 24.8621 14.6613 25.0379 14.8371C25.2137 15.0129 25.3125 15.2514 25.3125 15.5C25.3125 15.7486 25.2137 15.9871 25.0379 16.1629C24.8621 16.3387 24.6236 16.4375 24.375 16.4375H5.625C5.37636 16.4375 5.1379 16.3387 4.96209 16.1629C4.78627 15.9871 4.6875 15.7486 4.6875 15.5ZM4.6875 8C4.6875 7.75136 4.78627 7.5129 4.96209 7.33709C5.1379 7.16127 5.37636 7.0625 5.625 7.0625H24.375C24.6236 7.0625 24.8621 7.16127 25.0379 7.33709C25.2137 7.5129 25.3125 7.75136 25.3125 8C25.3125 8.24864 25.2137 8.4871 25.0379 8.66291C24.8621 8.83873 24.6236 8.9375 24.375 8.9375H5.625C5.37636 8.9375 5.1379 8.83873 4.96209 8.66291C4.78627 8.4871 4.6875 8.24864 4.6875 8Z" fill="#54595E"/>
</svg>
